<mxfile host="app.diagrams.net" modified="2024-05-19T10:35:34.511Z" agent="Mozilla/5.0 (Windows NT 10.0; Win64; x64) AppleWebKit/537.36 (KHTML, like Gecko) Chrome/124.0.0.0 Safari/537.36" version="24.4.0" etag="k-SCUoIsFrZgvtRTokYN" type="github">
  <diagram name="Page-1" id="TrcV5Fh7_1SeDa8gpybU">
    <mxGraphModel>
      <root>
        <mxCell id="0" />
        <mxCell id="1" parent="0" />
      </root>
    </mxGraphModel>
  </diagram>
</mxfile>
